<svg
	viewBox="0 0 1615 274"
	fill="none"
	xmlns="http://www.w3.org/2000/svg"
>
	<title>SupportWire</title>
	<path d="M1556.14 216.194C1545.93 216.194 1536.54 214.315 1527.96 210.558C1519.48 206.8 1512.06 201.502 1505.71 194.661C1499.44 187.821 1494.58 179.728 1491.11 170.383C1487.74 160.941 1486.05 150.632 1486.05 139.456V133.242C1486.05 121.199 1487.83 110.312 1491.4 100.582C1494.96 90.8511 1499.88 82.5174 1506.14 75.5806C1512.4 68.6439 1519.53 63.345 1527.53 59.6839C1535.62 55.9265 1544.1 54.0479 1552.96 54.0479C1562.89 54.0479 1571.7 55.8302 1579.41 59.3949C1587.12 62.8633 1593.57 67.825 1598.77 74.28C1604.07 80.6387 1608.07 88.2016 1610.77 96.9689C1613.47 105.64 1614.81 115.226 1614.81 125.727V136.277H1496.46V121.536H1597.62V119.513C1597.42 110.746 1595.64 102.557 1592.27 94.9457C1588.99 87.2382 1584.08 80.9759 1577.53 76.1587C1570.98 71.3415 1562.79 68.9329 1552.96 68.9329C1545.64 68.9329 1538.9 70.4744 1532.73 73.5574C1526.66 76.6404 1521.41 81.0722 1516.98 86.8528C1512.64 92.5371 1509.27 99.3293 1506.86 107.229C1504.55 115.033 1503.39 123.704 1503.39 133.242V139.456C1503.39 148.127 1504.65 156.22 1507.15 163.735C1509.75 171.153 1513.41 177.705 1518.13 183.389C1522.95 189.073 1528.64 193.505 1535.19 196.684C1541.74 199.864 1548.96 201.453 1556.86 201.453C1566.11 201.453 1574.3 199.767 1581.43 196.395C1588.56 192.927 1594.97 187.484 1600.65 180.065L1611.49 188.447C1608.12 193.457 1603.88 198.081 1598.77 202.321C1593.76 206.56 1587.74 209.932 1580.71 212.437C1573.68 214.941 1565.49 216.194 1556.14 216.194Z" fill="#fafaf9"/>
	<path d="M1416.11 82.8064V213.304H1398.91V56.9382H1415.67L1416.11 82.8064ZM1471.45 55.782L1471.02 71.6787C1469.09 71.3897 1467.22 71.1488 1465.38 70.9561C1463.55 70.7634 1461.58 70.6671 1459.46 70.6671C1451.95 70.6671 1445.35 72.0641 1439.66 74.858C1434.07 77.5557 1429.35 81.3612 1425.5 86.2748C1421.65 91.0919 1418.71 96.7762 1416.68 103.328C1414.66 109.783 1413.5 116.719 1413.21 124.138L1406.86 126.595C1406.86 116.382 1407.92 106.892 1410.04 98.125C1412.16 89.3577 1415.38 81.6984 1419.72 75.1471C1424.15 68.4994 1429.69 63.345 1436.34 59.6839C1443.08 55.9265 1450.98 54.0479 1460.04 54.0479C1462.25 54.0479 1464.42 54.2405 1466.54 54.6259C1468.76 54.9149 1470.39 55.3003 1471.45 55.782Z" fill="#fafaf9"/>
	<path d="M1351.65 56.939V213.305H1334.45V56.939H1351.65ZM1331.42 11.7057C1331.42 8.43006 1332.43 5.68427 1334.45 3.46837C1336.57 1.15612 1339.46 0 1343.12 0C1346.79 0 1349.68 1.15612 1351.8 3.46837C1354.01 5.68427 1355.12 8.43006 1355.12 11.7057C1355.12 14.8851 1354.01 17.6309 1351.8 19.9431C1349.68 22.159 1346.79 23.267 1343.12 23.267C1339.46 23.267 1336.57 22.159 1334.45 19.9431C1332.43 17.6309 1331.42 14.8851 1331.42 11.7057Z" fill="#fafaf9"/>
	<path d="M1124.47 157.664L1170.14 2.88843H1184.45L1172.89 48.8443L1124.19 213.303H1110.46L1124.47 157.664ZM1071.44 2.88843L1109.88 156.219L1121.44 213.303H1107.13L1053.23 2.88843H1071.44ZM1246.01 156.219L1283.87 2.88843H1302.08L1248.32 213.303H1234.02L1246.01 156.219ZM1186.04 2.88843L1231.13 157.664L1245 213.303H1231.27L1183.58 48.8443L1171.88 2.88843H1186.04Z" fill="#fafaf9"/>
	<path d="M1035.45 56.9386V82.3733H947.297V56.9386H1035.45ZM972.732 18.6421H1007.56V170.094C1007.56 174.911 1008.23 178.62 1009.58 181.222C1011.03 183.727 1013 185.413 1015.51 186.28C1018.01 187.147 1020.95 187.58 1024.32 187.58C1026.73 187.58 1029.04 187.436 1031.26 187.147C1033.48 186.858 1035.26 186.569 1036.61 186.28L1036.75 212.871C1033.86 213.738 1030.49 214.508 1026.64 215.183C1022.88 215.857 1018.54 216.194 1013.63 216.194C1005.63 216.194 998.552 214.797 992.386 212.004C986.22 209.113 981.403 204.441 977.935 197.986C974.466 191.531 972.732 182.956 972.732 172.262V18.6421Z" fill="#fafaf9"/>
	<path d="M886.89 86.7083V213.304H852.062V56.9382H885.301L886.89 86.7083ZM934.725 55.9265L934.436 88.298C932.316 87.9126 930.004 87.6236 927.499 87.4309C925.091 87.2382 922.682 87.1418 920.273 87.1418C914.3 87.1418 909.049 88.0089 904.521 89.7431C899.993 91.381 896.188 93.7895 893.105 96.9689C890.118 100.052 887.806 103.809 886.168 108.241C884.53 112.673 883.567 117.635 883.278 123.126L875.329 123.704C875.329 113.877 876.293 104.773 878.22 96.3908C880.146 88.0089 883.037 80.6387 886.89 74.28C890.841 67.9213 895.754 62.9596 901.631 59.3949C907.604 55.8302 914.493 54.0479 922.297 54.0479C924.416 54.0479 926.68 54.2405 929.089 54.6259C931.594 55.0113 933.473 55.4448 934.725 55.9265Z" fill="#fafaf9"/>
	<path d="M677.343 136.855V133.531C677.343 122.259 678.981 111.806 682.257 102.171C685.532 92.4407 690.253 84.0107 696.419 76.8813C702.681 69.6555 710.292 64.0676 719.252 60.1175C728.309 56.0711 738.521 54.0479 749.89 54.0479C761.355 54.0479 771.567 56.0711 780.527 60.1175C789.583 64.0676 797.243 69.6555 803.505 76.8813C809.767 84.0107 814.536 92.4407 817.812 102.171C821.088 111.806 822.725 122.259 822.725 133.531V136.855C822.725 148.127 821.088 158.581 817.812 168.215C814.536 177.849 809.767 186.279 803.505 193.505C797.243 200.634 789.631 206.222 780.671 210.269C771.711 214.219 761.547 216.194 750.179 216.194C738.714 216.194 728.453 214.219 719.397 210.269C710.437 206.222 702.826 200.634 696.564 193.505C690.301 186.279 685.532 177.849 682.257 168.215C678.981 158.581 677.343 148.127 677.343 136.855ZM712.171 133.531V136.855C712.171 143.888 712.894 150.536 714.339 156.798C715.784 163.061 718.048 168.552 721.131 173.273C724.214 177.994 728.164 181.703 732.981 184.401C737.799 187.098 743.531 188.447 750.179 188.447C756.634 188.447 762.222 187.098 766.942 184.401C771.76 181.703 775.71 177.994 778.793 173.273C781.876 168.552 784.14 163.061 785.585 156.798C787.126 150.536 787.897 143.888 787.897 136.855V133.531C787.897 126.595 787.126 120.043 785.585 113.877C784.14 107.615 781.828 102.075 778.648 97.2579C775.565 92.4407 771.615 88.6833 766.798 85.9857C762.077 83.1918 756.441 81.7948 749.89 81.7948C743.338 81.7948 737.654 83.1918 732.837 85.9857C728.116 88.6833 724.214 92.4407 721.131 97.2579C718.048 102.075 715.784 107.615 714.339 113.877C712.894 120.043 712.171 126.595 712.171 133.531Z" fill="#fafaf9"/>
	<path d="M552.482 86.9973V273.422H517.654V56.9382H549.736L552.482 86.9973ZM654.365 133.676V136.711C654.365 148.079 653.017 158.629 650.319 168.359C647.718 177.994 643.816 186.424 638.613 193.65C633.507 200.779 627.197 206.319 619.682 210.269C612.167 214.219 603.496 216.194 593.669 216.194C583.938 216.194 575.412 214.412 568.09 210.847C560.864 207.186 554.746 202.031 549.736 195.384C544.727 188.736 540.68 180.932 537.597 171.972C534.611 162.916 532.491 152.993 531.238 142.202V130.496C532.491 119.032 534.611 108.626 537.597 99.2811C540.68 89.9358 544.727 81.8911 549.736 75.1471C554.746 68.403 560.864 63.2005 568.09 59.5394C575.316 55.8784 583.746 54.0479 593.38 54.0479C603.207 54.0479 611.926 55.9747 619.537 59.8285C627.148 63.5859 633.555 68.9811 638.758 76.0142C643.96 82.9509 647.862 91.3328 650.464 101.16C653.065 110.891 654.365 121.729 654.365 133.676ZM619.537 136.711V133.676C619.537 126.45 618.863 119.754 617.514 113.588C616.165 107.326 614.046 101.834 611.155 97.1134C608.265 92.3926 604.556 88.7315 600.028 86.1302C595.596 83.4326 590.249 82.0838 583.987 82.0838C577.821 82.0838 572.522 83.1436 568.09 85.2631C563.658 87.2864 559.949 90.1285 556.962 93.7895C553.976 97.4506 551.663 101.738 550.025 106.651C548.388 111.469 547.232 116.719 546.557 122.404V150.44C547.713 157.376 549.688 163.735 552.482 169.516C555.276 175.296 559.226 179.921 564.332 183.389C569.535 186.761 576.183 188.447 584.276 188.447C590.538 188.447 595.885 187.098 600.317 184.401C604.749 181.703 608.361 177.994 611.155 173.273C614.046 168.456 616.165 162.916 617.514 156.654C618.863 150.391 619.537 143.744 619.537 136.711Z" fill="#fafaf9"/>
	<path d="M386.001 86.9973V273.422H351.172V56.9382H383.255L386.001 86.9973ZM487.884 133.676V136.711C487.884 148.079 486.535 158.629 483.837 168.359C481.236 177.994 477.334 186.424 472.132 193.65C467.025 200.779 460.715 206.319 453.2 210.269C445.685 214.219 437.014 216.194 427.187 216.194C417.457 216.194 408.93 214.412 401.608 210.847C394.382 207.186 388.265 202.031 383.255 195.384C378.245 188.736 374.198 180.932 371.115 171.972C368.129 162.916 366.009 152.993 364.757 142.202V130.496C366.009 119.032 368.129 108.626 371.115 99.2811C374.198 89.9358 378.245 81.8911 383.255 75.1471C388.265 68.403 394.382 63.2005 401.608 59.5394C408.834 55.8784 417.264 54.0479 426.898 54.0479C436.725 54.0479 445.444 55.9747 453.056 59.8285C460.667 63.5859 467.074 68.9811 472.276 76.0142C477.479 82.9509 481.381 91.3328 483.982 101.16C486.583 110.891 487.884 121.729 487.884 133.676ZM453.056 136.711V133.676C453.056 126.45 452.381 119.754 451.032 113.588C449.684 107.326 447.564 101.834 444.674 97.1134C441.783 92.3926 438.074 88.7315 433.546 86.1302C429.114 83.4326 423.767 82.0838 417.505 82.0838C411.339 82.0838 406.04 83.1436 401.608 85.2631C397.176 87.2864 393.467 90.1285 390.481 93.7895C387.494 97.4506 385.182 101.738 383.544 106.651C381.906 111.469 380.75 116.719 380.075 122.404V150.44C381.232 157.376 383.207 163.735 386.001 169.516C388.795 175.296 392.745 179.921 397.851 183.389C403.053 186.761 409.701 188.447 417.794 188.447C424.056 188.447 429.403 187.098 433.835 184.401C438.267 181.703 441.88 177.994 444.674 173.273C447.564 168.456 449.684 162.916 451.032 156.654C452.381 150.391 453.056 143.744 453.056 136.711Z" fill="#fafaf9"/>
	<path d="M280.36 176.452V56.9375H315.333V213.303H282.384L280.36 176.452ZM285.274 143.936L296.98 143.647C296.98 154.148 295.823 163.831 293.511 172.694C291.199 181.461 287.634 189.121 282.817 195.672C278 202.127 271.834 207.185 264.319 210.846C256.804 214.411 247.796 216.193 237.295 216.193C229.684 216.193 222.699 215.085 216.34 212.869C209.981 210.654 204.49 207.233 199.865 202.609C195.337 197.984 191.821 191.963 189.316 184.544C186.811 177.126 185.558 168.262 185.558 157.954V56.9375H220.387V158.243C220.387 163.927 221.061 168.696 222.41 172.55C223.759 176.307 225.589 179.342 227.901 181.654C230.214 183.966 232.911 185.604 235.994 186.568C239.077 187.531 242.353 188.013 245.821 188.013C255.745 188.013 263.548 186.086 269.233 182.232C275.013 178.282 279.108 172.983 281.516 166.336C284.021 159.688 285.274 152.221 285.274 143.936Z" fill="#fafaf9"/>
	<path d="M121.248 159.111C121.248 154.776 120.574 150.922 119.225 147.55C117.973 144.178 115.709 141.095 112.433 138.301C109.157 135.507 104.533 132.81 98.5594 130.208C92.6825 127.511 85.1677 124.765 76.015 121.971C65.9953 118.888 56.7463 115.468 48.2681 111.71C39.8862 107.857 32.5641 103.425 26.3018 98.4149C20.0394 93.3087 15.1741 87.4799 11.7057 80.9285C8.23737 74.2808 6.50319 66.6215 6.50319 57.9506C6.50319 49.376 8.28554 41.5722 11.8503 34.5391C15.5113 27.5061 20.6657 21.4364 27.3134 16.3302C34.0574 11.1277 42.0058 7.12942 51.1584 4.33546C60.311 1.44515 70.4271 0 81.5066 0C97.1143 0 110.554 2.89031 121.826 8.67092C133.195 14.4515 141.914 22.2072 147.984 31.9379C154.15 41.6686 157.233 52.4109 157.233 64.1648H121.248C121.248 57.228 119.755 51.1102 116.768 45.8113C113.878 40.4161 109.446 36.177 103.473 33.094C97.596 30.011 90.1294 28.4695 81.0731 28.4695C72.4985 28.4695 65.3691 29.7701 59.6848 32.3714C54.0005 34.9727 49.7614 38.4892 46.9675 42.921C44.1735 47.3528 42.7765 52.3627 42.7765 57.9506C42.7765 61.9007 43.6918 65.5136 45.5223 68.7893C47.3528 71.9686 50.1468 74.9552 53.9042 77.7492C57.6616 80.4468 62.3824 82.9999 68.0667 85.4085C73.751 87.8171 80.4468 90.1293 88.1543 92.3452C99.8119 95.8136 109.976 99.6674 118.647 103.906C127.318 108.049 134.544 112.77 140.324 118.069C146.105 123.368 150.44 129.389 153.331 136.133C156.221 142.781 157.666 150.344 157.666 158.822C157.666 167.686 155.884 175.682 152.319 182.812C148.754 189.845 143.648 195.866 137 200.876C130.449 205.79 122.549 209.595 113.3 212.293C104.147 214.894 93.9349 216.195 82.6627 216.195C72.5467 216.195 62.5751 214.846 52.7481 212.148C43.0174 209.451 34.1538 205.356 26.1573 199.865C18.1608 194.277 11.8021 187.34 7.08125 179.054C2.36042 170.673 0 160.894 0 149.718H36.2733C36.2733 156.558 37.4295 162.387 39.7417 167.204C42.1503 172.021 45.4741 175.971 49.7133 179.054C53.9524 182.041 58.8659 184.257 64.4538 185.702C70.1381 187.147 76.2077 187.87 82.6627 187.87C91.141 187.87 98.2222 186.666 103.906 184.257C109.687 181.848 114.023 178.476 116.913 174.141C119.803 169.805 121.248 164.796 121.248 159.111Z" fill="#fafaf9"/>
</svg>